<?xml version="1.0" encoding="UTF-8"?>
<svg width="29px" height="29px" viewBox="0 0 29 29" version="1.1" xmlns="http://www.w3.org/2000/svg" xmlns:xlink="http://www.w3.org/1999/xlink">
    <!-- Generator: Sketch 58 (84663) - https://sketch.com -->
    <title>Slice 1</title>
    <desc>Created with Sketch.</desc>
    <g id="Page-1" stroke="none" stroke-width="1" fill="none" fill-rule="evenodd">
        <path d="M23.8823529,8.10294118 C23.8823529,8.80961627 23.3094497,9.38235294 22.6029412,9.38235294 C21.8964327,9.38235294 21.3235294,8.80961627 21.3235294,8.10294118 C21.3235294,7.39626608 21.8964327,6.82352941 22.6029412,6.82352941 C23.3096163,6.82352941 23.8823529,7.39626608 23.8823529,8.10294118 Z M14.9264706,19.6176471 C12.3355813,19.6176471 10.2352941,17.5173599 10.2352941,14.9264706 C10.2352941,12.3355813 12.3355813,10.2352941 14.9264706,10.2352941 C17.5173599,10.2352941 19.6176471,12.3355813 19.6176471,14.9264706 C19.6176471,17.5173599 17.5173599,19.6176471 14.9264706,19.6176471 Z M14.9264706,7.67647059 C10.9223705,7.67647059 7.67647059,10.9223705 7.67647059,14.9264706 C7.67647059,18.9305707 10.9223705,22.1764706 14.9264706,22.1764706 C18.9305707,22.1764706 22.1764706,18.9305707 22.1764706,14.9264706 C22.1764706,10.9223705 18.9305707,7.67647059 14.9264706,7.67647059 Z M14.5001138,2.55882353 C18.389283,2.55882353 18.8499114,2.57361644 20.3856428,2.64371206 C21.8057619,2.70857327 22.5770414,2.94571496 23.0902415,3.14530542 C23.7700325,3.40952951 24.2552399,3.72518741 24.7650262,4.23497376 C25.2748126,4.74453254 25.5904705,5.22973991 25.8546946,5.9097585 C26.0540575,6.4229586 26.2914267,7.19423805 26.3562879,8.61435719 C26.4263836,10.1503162 26.4411765,10.6109446 26.4411765,14.5001138 C26.4411765,18.389283 26.4263836,18.8499114 26.3562879,20.3856428 C26.2914267,21.8057619 26.054285,22.5770414 25.8546946,23.0902415 C25.5904705,23.7700325 25.2748126,24.2552399 24.7650262,24.7650262 C24.2554675,25.2748126 23.7702601,25.5904705 23.0902415,25.8546946 C22.5770414,26.0540575 21.8057619,26.2914267 20.3856428,26.3562879 C18.8499114,26.4263836 18.389283,26.4411765 14.5001138,26.4411765 C10.610717,26.4411765 10.1500886,26.4263836 8.61435719,26.3562879 C7.19423805,26.2914267 6.4229586,26.054285 5.9097585,25.8546946 C5.22996749,25.5904705 4.74476012,25.2748126 4.23497376,24.7650262 C3.72541499,24.2554675 3.40952951,23.7702601 3.14530542,23.0902415 C2.94594254,22.5770414 2.70857327,21.8057619 2.64371206,20.3856428 C2.57361644,18.8496838 2.55882353,18.3890554 2.55882353,14.5001138 C2.55882353,10.6109446 2.57361644,10.1503162 2.64371206,8.61435719 C2.70857327,7.19423805 2.94571496,6.4229586 3.14530542,5.9097585 C3.40952951,5.22996749 3.72518741,4.74476012 4.23497376,4.23497376 C4.74453254,3.72518741 5.22973991,3.40952951 5.9097585,3.14530542 C6.4229586,2.94594254 7.19423805,2.70857327 8.61435719,2.64371206 C10.1503162,2.57361644 10.6109446,2.55882353 14.5001138,2.55882353 Z M14.5,0 C10.5621172,0 10.0682109,0.016765625 8.52169531,0.0872265625 C6.97835156,0.1576875 5.92415625,0.402828125 5.00204687,0.76125 C4.04844531,1.13167969 3.23984375,1.627625 2.43373437,2.43373437 C1.627625,3.23984375 1.13167969,4.04844531 0.76125,5.00204687 C0.402828125,5.92438281 0.1576875,6.97835156 0.0872265625,8.52169531 C0.016765625,10.0682109 0,10.5621172 0,14.5 C0,18.4378828 0.016765625,18.9317891 0.0872265625,20.4783047 C0.1576875,22.0216484 0.402828125,23.0756172 0.76125,23.9979531 C1.13167969,24.9515547 1.627625,25.7601563 2.43373438,26.5662656 C3.23984375,27.372375 4.04844531,27.8680937 5.00204688,28.23875 C5.92438281,28.5971719 6.97835156,28.8423125 8.52169531,28.9127734 C10.0682109,28.9832344 10.5621172,29 14.5,29 C18.4378828,29 18.9317891,28.9832344 20.4783047,28.9127734 C22.0216484,28.8423125 23.0756172,28.5971719 23.9979531,28.23875 C24.9515547,27.8680937 25.7601563,27.372375 26.5662656,26.5662656 C27.372375,25.7601562 27.8680937,24.9515547 28.23875,23.9979531 C28.5971719,23.0756172 28.8423125,22.0216484 28.9127734,20.4783047 C28.9832344,18.9317891 29,18.4378828 29,14.5 C29,10.5621172 28.9832344,10.0682109 28.9127734,8.52169531 C28.8423125,6.97835156 28.5971719,5.92438281 28.23875,5.00204687 C27.8680937,4.04844531 27.372375,3.23984375 26.5662656,2.43373437 C25.7601562,1.627625 24.9515547,1.13190625 23.9979531,0.76125 C23.0756172,0.402828125 22.0216484,0.1576875 20.4783047,0.0872265625 C18.9317891,0.016765625 18.4378828,0 14.5,0 Z" id="Instagram-Copy" fill="#787878"></path>
    </g>
</svg>