<?xml version="1.0" encoding="UTF-8"?>
<svg width="27px" height="27px" viewBox="0 0 27 27" version="1.1" xmlns="http://www.w3.org/2000/svg" xmlns:xlink="http://www.w3.org/1999/xlink">
    <!-- Generator: Sketch 58 (84663) - https://sketch.com -->
    <title>Slice 1</title>
    <desc>Created with Sketch.</desc>
    <g id="Page-1" stroke="none" stroke-width="1" fill="none" fill-rule="evenodd">
        <path d="M14.4215859,27 L1.49027344,27 C0.666984375,27 0,26.3325938 0,25.5097266 L0,1.49027344 C0,0.666984375 0.666984375,0 1.49027344,0 L25.5099375,0 C26.3328047,0 27,0.666984375 27,1.49027344 L27,25.5097266 C27,26.3328047 26.3328047,27 25.5099375,27 L18.6295781,27 L18.6295781,16.5440391 L22.1391562,16.5440391 L22.6646016,12.4691484 L18.6295781,12.4691484 L18.6295781,9.86765625 C18.6295781,8.68788281 18.9571641,7.884 20.6488828,7.884 L22.8065625,7.88315625 L22.8065625,4.23857813 C22.4334141,4.18900781 21.1526016,4.07805469 19.6623281,4.07805469 C16.5512109,4.07805469 14.421375,5.977125 14.421375,9.46434375 L14.421375,12.4693594 L10.9029375,12.4693594 L10.9029375,16.54425 L14.4215859,16.54425 L14.4215859,27 Z" id="Facebook" fill="#787878"></path>
    </g>
</svg>