<?xml version="1.0" encoding="UTF-8"?>
<svg width="100px" height="500px" viewBox="0 0 100 500" version="1.1" xmlns="http://www.w3.org/2000/svg" xmlns:xlink="http://www.w3.org/1999/xlink">
    <g id="Artboard" stroke="none" stroke-width="1" fill="none" fill-rule="evenodd">
        <g id="Group" transform="translate(36.000000, 39.000000)">
            <path d="M15.4215859,125 L2.49027344,125 C1.66698437,125 1,124.332594 1,123.509727 L1,99.4902734 C1,98.6669844 1.66698437,98 2.49027344,98 L26.5099375,98 C27.3328047,98 28,98.6669844 28,99.4902734 L28,123.509727 C28,124.332805 27.3328047,125 26.5099375,125 L19.6295781,125 L19.6295781,114.544039 L23.1391562,114.544039 L23.6646016,110.469148 L19.6295781,110.469148 L19.6295781,107.867656 C19.6295781,106.687883 19.9571641,105.884 21.6488828,105.884 L23.8065625,105.883156 L23.8065625,102.238578 C23.4334141,102.189008 22.1526016,102.078055 20.6623281,102.078055 C17.5512109,102.078055 15.421375,103.977125 15.421375,107.464344 L15.421375,110.469359 L11.9029375,110.469359 L11.9029375,114.54425 L15.4215859,114.54425 L15.4215859,125 Z" id="Facebook" fill="#787878"></path>
            <path d="M15.4215859,225 L2.49027344,225 C1.66698437,225 1,224.332594 1,223.509727 L1,199.490273 C1,198.666984 1.66698437,198 2.49027344,198 L26.5099375,198 C27.3328047,198 28,198.666984 28,199.490273 L28,223.509727 C28,224.332805 27.3328047,225 26.5099375,225 L19.6295781,225 L19.6295781,214.544039 L23.1391562,214.544039 L23.6646016,210.469148 L19.6295781,210.469148 L19.6295781,207.867656 C19.6295781,206.687883 19.9571641,205.884 21.6488828,205.884 L23.8065625,205.883156 L23.8065625,202.238578 C23.4334141,202.189008 22.1526016,202.078055 20.6623281,202.078055 C17.5512109,202.078055 15.421375,203.977125 15.421375,207.464344 L15.421375,210.469359 L11.9029375,210.469359 L11.9029375,214.54425 L15.4215859,214.54425 L15.4215859,225 Z" id="Facebook-Copy" fill="#E24A74"></path>
            <path d="M23.8823529,305.102941 C23.8823529,305.809616 23.3094497,306.382353 22.6029412,306.382353 C21.8964327,306.382353 21.3235294,305.809616 21.3235294,305.102941 C21.3235294,304.396266 21.8964327,303.823529 22.6029412,303.823529 C23.3096163,303.823529 23.8823529,304.396266 23.8823529,305.102941 Z M14.9264706,316.617647 C12.3355813,316.617647 10.2352941,314.51736 10.2352941,311.926471 C10.2352941,309.335581 12.3355813,307.235294 14.9264706,307.235294 C17.5173599,307.235294 19.6176471,309.335581 19.6176471,311.926471 C19.6176471,314.51736 17.5173599,316.617647 14.9264706,316.617647 Z M14.9264706,304.676471 C10.9223705,304.676471 7.67647059,307.92237 7.67647059,311.926471 C7.67647059,315.930571 10.9223705,319.176471 14.9264706,319.176471 C18.9305707,319.176471 22.1764706,315.930571 22.1764706,311.926471 C22.1764706,307.92237 18.9305707,304.676471 14.9264706,304.676471 Z M14.5001138,299.558824 C18.389283,299.558824 18.8499114,299.573616 20.3856428,299.643712 C21.8057619,299.708573 22.5770414,299.945715 23.0902415,300.145305 C23.7700325,300.40953 24.2552399,300.725187 24.7650262,301.234974 C25.2748126,301.744533 25.5904705,302.22974 25.8546946,302.909758 C26.0540575,303.422959 26.2914267,304.194238 26.3562879,305.614357 C26.4263836,307.150316 26.4411765,307.610945 26.4411765,311.500114 C26.4411765,315.389283 26.4263836,315.849911 26.3562879,317.385643 C26.2914267,318.805762 26.054285,319.577041 25.8546946,320.090242 C25.5904705,320.770033 25.2748126,321.25524 24.7650262,321.765026 C24.2554675,322.274813 23.7702601,322.59047 23.0902415,322.854695 C22.5770414,323.054057 21.8057619,323.291427 20.3856428,323.356288 C18.8499114,323.426384 18.389283,323.441176 14.5001138,323.441176 C10.610717,323.441176 10.1500886,323.426384 8.61435719,323.356288 C7.19423805,323.291427 6.4229586,323.054285 5.9097585,322.854695 C5.22996749,322.59047 4.74476012,322.274813 4.23497376,321.765026 C3.72541499,321.255467 3.40952951,320.77026 3.14530542,320.090242 C2.94594254,319.577041 2.70857327,318.805762 2.64371206,317.385643 C2.57361644,315.849684 2.55882353,315.389055 2.55882353,311.500114 C2.55882353,307.610945 2.57361644,307.150316 2.64371206,305.614357 C2.70857327,304.194238 2.94571496,303.422959 3.14530542,302.909758 C3.40952951,302.229967 3.72518741,301.74476 4.23497376,301.234974 C4.74453254,300.725187 5.22973991,300.40953 5.9097585,300.145305 C6.4229586,299.945943 7.19423805,299.708573 8.61435719,299.643712 C10.1503162,299.573616 10.6109446,299.558824 14.5001138,299.558824 Z M14.5,297 C10.5621172,297 10.0682109,297.016766 8.52169531,297.087227 C6.97835156,297.157688 5.92415625,297.402828 5.00204687,297.76125 C4.04844531,298.13168 3.23984375,298.627625 2.43373437,299.433734 C1.627625,300.239844 1.13167969,301.048445 0.76125,302.002047 C0.402828125,302.924383 0.1576875,303.978352 0.0872265625,305.521695 C0.016765625,307.068211 0,307.562117 0,311.5 C0,315.437883 0.016765625,315.931789 0.0872265625,317.478305 C0.1576875,319.021648 0.402828125,320.075617 0.76125,320.997953 C1.13167969,321.951555 1.627625,322.760156 2.43373438,323.566266 C3.23984375,324.372375 4.04844531,324.868094 5.00204688,325.23875 C5.92438281,325.597172 6.97835156,325.842312 8.52169531,325.912773 C10.0682109,325.983234 10.5621172,326 14.5,326 C18.4378828,326 18.9317891,325.983234 20.4783047,325.912773 C22.0216484,325.842312 23.0756172,325.597172 23.9979531,325.23875 C24.9515547,324.868094 25.7601563,324.372375 26.5662656,323.566266 C27.372375,322.760156 27.8680937,321.951555 28.23875,320.997953 C28.5971719,320.075617 28.8423125,319.021648 28.9127734,317.478305 C28.9832344,315.931789 29,315.437883 29,311.5 C29,307.562117 28.9832344,307.068211 28.9127734,305.521695 C28.8423125,303.978352 28.5971719,302.924383 28.23875,302.002047 C27.8680937,301.048445 27.372375,300.239844 26.5662656,299.433734 C25.7601562,298.627625 24.9515547,298.131906 23.9979531,297.76125 C23.0756172,297.402828 22.0216484,297.157688 20.4783047,297.087227 C18.9317891,297.016766 18.4378828,297 14.5,297 Z" id="Instagram-Copy" fill="#787878"></path>
            <path d="M23.8823529,405.102941 C23.8823529,405.809616 23.3094497,406.382353 22.6029412,406.382353 C21.8964327,406.382353 21.3235294,405.809616 21.3235294,405.102941 C21.3235294,404.396266 21.8964327,403.823529 22.6029412,403.823529 C23.3096163,403.823529 23.8823529,404.396266 23.8823529,405.102941 Z M14.9264706,416.617647 C12.3355813,416.617647 10.2352941,414.51736 10.2352941,411.926471 C10.2352941,409.335581 12.3355813,407.235294 14.9264706,407.235294 C17.5173599,407.235294 19.6176471,409.335581 19.6176471,411.926471 C19.6176471,414.51736 17.5173599,416.617647 14.9264706,416.617647 Z M14.9264706,404.676471 C10.9223705,404.676471 7.67647059,407.92237 7.67647059,411.926471 C7.67647059,415.930571 10.9223705,419.176471 14.9264706,419.176471 C18.9305707,419.176471 22.1764706,415.930571 22.1764706,411.926471 C22.1764706,407.92237 18.9305707,404.676471 14.9264706,404.676471 Z M14.5001138,399.558824 C18.389283,399.558824 18.8499114,399.573616 20.3856428,399.643712 C21.8057619,399.708573 22.5770414,399.945715 23.0902415,400.145305 C23.7700325,400.40953 24.2552399,400.725187 24.7650262,401.234974 C25.2748126,401.744533 25.5904705,402.22974 25.8546946,402.909758 C26.0540575,403.422959 26.2914267,404.194238 26.3562879,405.614357 C26.4263836,407.150316 26.4411765,407.610945 26.4411765,411.500114 C26.4411765,415.389283 26.4263836,415.849911 26.3562879,417.385643 C26.2914267,418.805762 26.054285,419.577041 25.8546946,420.090242 C25.5904705,420.770033 25.2748126,421.25524 24.7650262,421.765026 C24.2554675,422.274813 23.7702601,422.59047 23.0902415,422.854695 C22.5770414,423.054057 21.8057619,423.291427 20.3856428,423.356288 C18.8499114,423.426384 18.389283,423.441176 14.5001138,423.441176 C10.610717,423.441176 10.1500886,423.426384 8.61435719,423.356288 C7.19423805,423.291427 6.4229586,423.054285 5.9097585,422.854695 C5.22996749,422.59047 4.74476012,422.274813 4.23497376,421.765026 C3.72541499,421.255467 3.40952951,420.77026 3.14530542,420.090242 C2.94594254,419.577041 2.70857327,418.805762 2.64371206,417.385643 C2.57361644,415.849684 2.55882353,415.389055 2.55882353,411.500114 C2.55882353,407.610945 2.57361644,407.150316 2.64371206,405.614357 C2.70857327,404.194238 2.94571496,403.422959 3.14530542,402.909758 C3.40952951,402.229967 3.72518741,401.74476 4.23497376,401.234974 C4.74453254,400.725187 5.22973991,400.40953 5.9097585,400.145305 C6.4229586,399.945943 7.19423805,399.708573 8.61435719,399.643712 C10.1503162,399.573616 10.6109446,399.558824 14.5001138,399.558824 Z M14.5,397 C10.5621172,397 10.0682109,397.016766 8.52169531,397.087227 C6.97835156,397.157688 5.92415625,397.402828 5.00204687,397.76125 C4.04844531,398.13168 3.23984375,398.627625 2.43373437,399.433734 C1.627625,400.239844 1.13167969,401.048445 0.76125,402.002047 C0.402828125,402.924383 0.1576875,403.978352 0.0872265625,405.521695 C0.016765625,407.068211 0,407.562117 0,411.5 C0,415.437883 0.016765625,415.931789 0.0872265625,417.478305 C0.1576875,419.021648 0.402828125,420.075617 0.76125,420.997953 C1.13167969,421.951555 1.627625,422.760156 2.43373438,423.566266 C3.23984375,424.372375 4.04844531,424.868094 5.00204688,425.23875 C5.92438281,425.597172 6.97835156,425.842312 8.52169531,425.912773 C10.0682109,425.983234 10.5621172,426 14.5,426 C18.4378828,426 18.9317891,425.983234 20.4783047,425.912773 C22.0216484,425.842312 23.0756172,425.597172 23.9979531,425.23875 C24.9515547,424.868094 25.7601563,424.372375 26.5662656,423.566266 C27.372375,422.760156 27.8680937,421.951555 28.23875,420.997953 C28.5971719,420.075617 28.8423125,419.021648 28.9127734,417.478305 C28.9832344,415.931789 29,415.437883 29,411.5 C29,407.562117 28.9832344,407.068211 28.9127734,405.521695 C28.8423125,403.978352 28.5971719,402.924383 28.23875,402.002047 C27.8680937,401.048445 27.372375,400.239844 26.5662656,399.433734 C25.7601562,398.627625 24.9515547,398.131906 23.9979531,397.76125 C23.0756172,397.402828 22.0216484,397.157688 20.4783047,397.087227 C18.9317891,397.016766 18.4378828,397 14.5,397 Z" id="Instagram-Copy-2" fill="#E24A74"></path>
            <path d="M10.3077813,0.425807373 L10.3350227,0.453048756 L10.3350227,0.453048756 L19.6621245,10.022839 C19.9522427,10.320506 20.0941095,10.7086162 20.0877249,11.094736 C20.0941528,11.4806201 19.952287,11.8688034 19.6621245,12.1665159 L10.3350227,21.7363061 C9.75680706,22.3295667 8.80713791,22.3417631 8.21387727,21.7635475 L8.18663589,21.7363061 L8.18663589,21.7363061 L7.4258066,20.9556803 C6.85806447,20.3731657 6.85806447,19.4442908 7.4258066,18.8617762 L14.995,11.094 L7.4258066,3.32757864 C6.85806447,2.74506403 6.85806447,1.81618921 7.4258066,1.2336746 L8.18663589,0.453048756 C8.76485152,-0.140211879 9.71452068,-0.152408261 10.3077813,0.425807373 Z" id="Combined-Shape" fill="#E24A74"></path>
        </g>
    </g>
</svg>
