<?xml version="1.0" encoding="utf-8"?>
<!-- Generator: Adobe Illustrator 24.3.0, SVG Export Plug-In . SVG Version: 6.00 Build 0)  -->
<svg version="1.1" id="Laag_1" xmlns="http://www.w3.org/2000/svg" xmlns:xlink="http://www.w3.org/1999/xlink" x="0px" y="0px"
	 viewBox="0 0 174 55" style="enable-background:new 0 0 174 55;" xml:space="preserve">
<style type="text/css">
	.st0{fill:none;stroke:#FFFFFF;stroke-width:0.7;stroke-miterlimit:10;}
	.st1{fill:#FFFFFF;}
</style>
<g>
	<path class="st0" d="M24.1,33.02c-1.72,0-3.12-1.4-3.12-3.12v-2.02c0-3.31-2.68-5.99-5.99-5.99S9,24.58,9,27.89l0,5.14"/>
	<path class="st0" d="M24.1,35.89c-3.31,0-5.99-2.68-5.99-5.99v-2.02c0-1.72-1.4-3.12-3.12-3.12s-3.12,1.4-3.12,3.12l0,5.14"/>
	<g>
		<path class="st0" d="M24.14,24.76c1.72,0,3.12,1.4,3.12,3.12v2.02c0,3.31,2.68,5.99,5.99,5.99c3.31,0,5.99-2.68,5.99-5.99l0-5.14"
			/>
		<path class="st0" d="M24.14,21.9c3.31,0,5.99,2.68,5.99,5.99v2.02c0,1.72,1.4,3.12,3.12,3.12c1.72,0,3.12-1.4,3.12-3.12l0-5.14"/>
	</g>
</g>
<g id="Rood_tekst_2_">
	<path class="st1" d="M47.38,26.05h4.11v1.05h-4.11V26.05z M51,22.97h2.94v1.12H51c-0.23-0.01-0.45,0.02-0.64,0.1
		c-0.19,0.07-0.34,0.2-0.45,0.38c-0.11,0.18-0.17,0.44-0.17,0.78h-1.12c0-0.56,0.1-1.01,0.3-1.36c0.2-0.35,0.48-0.61,0.84-0.77
		C50.12,23.06,50.54,22.97,51,22.97z M48.62,32.77v-7.42h1.12v7.42H48.62z M50.93,27.1v-1.05h2.84v1.05H50.93z M52.82,26.05h1.12
		v6.72h-1.12V26.05z"/>
	<path class="st1" d="M55.69,25.77h1.12v7h-1.12V25.77z M59.22,25.63c0.37,0,0.71,0.06,1.01,0.17c0.3,0.11,0.55,0.28,0.76,0.49
		c0.21,0.21,0.36,0.47,0.48,0.78c0.11,0.3,0.17,0.65,0.17,1.03v4.67H60.5v-4.39c0-0.54-0.13-0.95-0.38-1.22
		c-0.25-0.27-0.63-0.41-1.13-0.41c-0.38,0-0.74,0.1-1.06,0.29c-0.33,0.2-0.59,0.46-0.8,0.8c-0.21,0.34-0.34,0.73-0.38,1.18
		l-0.01-0.81c0.05-0.39,0.14-0.75,0.29-1.06c0.14-0.32,0.33-0.59,0.55-0.82c0.22-0.23,0.47-0.4,0.76-0.52
		C58.6,25.69,58.9,25.63,59.22,25.63z"/>
	<path class="st1" d="M65.95,31.66c-0.49,0-0.96-0.12-1.41-0.36c-0.44-0.24-0.8-0.58-1.08-1.03c-0.28-0.45-0.41-0.98-0.41-1.61
		c0-0.62,0.14-1.16,0.41-1.62c0.27-0.45,0.62-0.8,1.06-1.05c0.44-0.25,0.91-0.37,1.43-0.37c0.16,0,0.31,0.01,0.45,0.03
		c0.14,0.02,0.28,0.06,0.41,0.11h2.84v1.2c-0.4,0-0.8-0.07-1.2-0.22c-0.4-0.15-0.73-0.3-1.01-0.46l-0.06-0.06
		c0.33,0.18,0.59,0.39,0.8,0.63c0.21,0.24,0.37,0.52,0.48,0.82c0.11,0.3,0.16,0.63,0.16,0.99c0,0.63-0.13,1.16-0.4,1.61
		c-0.27,0.45-0.62,0.79-1.06,1.03C66.94,31.54,66.46,31.66,65.95,31.66z M68,35.57v-0.31c0-0.49-0.13-0.85-0.38-1.08
		c-0.26-0.22-0.64-0.34-1.15-0.34h-1.4c-0.31,0-0.58-0.03-0.8-0.08c-0.23-0.05-0.42-0.13-0.57-0.23c-0.15-0.1-0.26-0.23-0.34-0.38
		c-0.07-0.15-0.11-0.32-0.11-0.5c0-0.35,0.11-0.62,0.32-0.8c0.21-0.18,0.48-0.3,0.8-0.34c0.32-0.05,0.62-0.05,0.91,0l0.67,0.15
		c-0.5,0.03-0.89,0.08-1.17,0.15c-0.28,0.07-0.41,0.23-0.41,0.48c0,0.14,0.05,0.25,0.16,0.34c0.11,0.09,0.27,0.13,0.48,0.13h1.46
		c0.48,0,0.93,0.07,1.33,0.2c0.4,0.14,0.72,0.36,0.97,0.69c0.24,0.32,0.36,0.76,0.36,1.32v0.59H68z M65.95,30.61
		c0.31,0,0.59-0.07,0.86-0.22s0.48-0.37,0.65-0.66c0.17-0.29,0.25-0.64,0.25-1.06s-0.08-0.78-0.24-1.07
		c-0.16-0.29-0.38-0.52-0.65-0.67c-0.27-0.15-0.56-0.23-0.87-0.23s-0.6,0.08-0.87,0.23c-0.27,0.15-0.49,0.38-0.66,0.66
		c-0.17,0.29-0.25,0.65-0.25,1.08c0,0.42,0.08,0.77,0.25,1.06c0.17,0.29,0.39,0.51,0.66,0.66C65.35,30.54,65.64,30.61,65.95,30.61z"
		/>
	<path class="st1" d="M75.92,30.52h1.05c-0.07,0.46-0.24,0.87-0.5,1.22c-0.26,0.36-0.59,0.64-1.01,0.85
		c-0.42,0.21-0.89,0.31-1.43,0.31c-0.65,0-1.24-0.16-1.76-0.47c-0.52-0.31-0.94-0.74-1.24-1.29c-0.3-0.55-0.45-1.17-0.45-1.87
		c0-0.7,0.15-1.32,0.44-1.88c0.29-0.55,0.7-0.98,1.21-1.3c0.51-0.32,1.09-0.48,1.74-0.48c0.68,0,1.26,0.15,1.73,0.45
		c0.47,0.3,0.82,0.75,1.05,1.33c0.23,0.58,0.32,1.3,0.27,2.15H71.7c0.05,0.46,0.17,0.86,0.38,1.2c0.21,0.35,0.48,0.61,0.81,0.8
		c0.34,0.19,0.72,0.29,1.15,0.29c0.48,0,0.88-0.12,1.21-0.37C75.58,31.24,75.8,30.92,75.92,30.52z M74.01,26.68
		c-0.58,0-1.06,0.17-1.46,0.5c-0.39,0.34-0.65,0.79-0.78,1.37h4.1c-0.04-0.62-0.24-1.08-0.59-1.4
		C74.91,26.84,74.49,26.68,74.01,26.68z"/>
	<path class="st1" d="M78.46,25.77h1.12v7h-1.12V25.77z M81.82,26.82c-0.48,0-0.87,0.12-1.2,0.36s-0.57,0.53-0.76,0.87
		c-0.18,0.34-0.3,0.67-0.36,0.99l-0.01-0.81c0-0.08,0.02-0.22,0.06-0.42c0.04-0.2,0.11-0.42,0.21-0.66c0.1-0.25,0.24-0.49,0.41-0.71
		c0.17-0.23,0.39-0.42,0.66-0.57c0.27-0.15,0.6-0.22,0.98-0.22V26.82z"/>
	<path class="st1" d="M86.15,22.97h1.12v9.8h-1.12V22.97z"/>
	<path class="st1" d="M90.62,22.97v1.36h-1.46v-1.36H90.62z M89.33,25.77h1.12v7h-1.12V25.77z"/>
	<path class="st1" d="M98.58,30.14c-0.07,0.58-0.25,1.08-0.55,1.49c-0.3,0.42-0.68,0.73-1.14,0.95c-0.46,0.22-0.95,0.33-1.48,0.33
		c-0.6,0-1.16-0.14-1.68-0.43c-0.52-0.29-0.94-0.71-1.27-1.25s-0.48-1.19-0.48-1.94c0-0.75,0.16-1.39,0.48-1.94
		c0.32-0.55,0.74-0.97,1.27-1.27c0.52-0.3,1.08-0.45,1.68-0.45c0.53,0,1.02,0.11,1.48,0.34c0.45,0.22,0.83,0.54,1.13,0.95
		c0.3,0.41,0.49,0.9,0.57,1.47h-1.02c-0.16-0.53-0.43-0.95-0.83-1.25c-0.39-0.3-0.84-0.45-1.33-0.45c-0.4,0-0.78,0.1-1.13,0.31
		c-0.35,0.21-0.64,0.5-0.85,0.89c-0.21,0.39-0.32,0.86-0.32,1.41c0,0.54,0.11,1.01,0.32,1.39c0.21,0.39,0.5,0.68,0.85,0.88
		c0.35,0.2,0.73,0.3,1.14,0.3c0.57,0,1.03-0.15,1.39-0.45c0.36-0.3,0.62-0.73,0.78-1.27H98.58z"/>
	<path class="st1" d="M100.17,22.97h1.12v9.8h-1.12V22.97z M105.97,25.77l-3.5,3.46l0.03-0.73l3.71,4.27h-1.43l-3.46-3.9l3.05-3.09
		H105.97z"/>
	<path class="st1" d="M108.64,22.97v1.36h-1.46v-1.36H108.64z M107.35,25.77h1.12v7h-1.12V25.77z"/>
	<path class="st1" d="M110.39,25.77h1.12v7h-1.12V25.77z M113.92,25.63c0.37,0,0.71,0.06,1.01,0.17c0.3,0.11,0.55,0.28,0.76,0.49
		c0.21,0.21,0.36,0.47,0.48,0.78c0.11,0.3,0.17,0.65,0.17,1.03v4.67h-1.12v-4.39c0-0.54-0.13-0.95-0.38-1.22
		c-0.25-0.27-0.63-0.41-1.13-0.41c-0.38,0-0.74,0.1-1.06,0.29c-0.33,0.2-0.59,0.46-0.8,0.8c-0.21,0.34-0.34,0.73-0.38,1.18
		l-0.01-0.81c0.05-0.39,0.14-0.75,0.29-1.06c0.14-0.32,0.33-0.59,0.55-0.82c0.22-0.23,0.47-0.4,0.76-0.52
		C113.3,25.69,113.6,25.63,113.92,25.63z"/>
	<path class="st1" d="M120.65,31.66c-0.49,0-0.96-0.12-1.41-0.36c-0.44-0.24-0.8-0.58-1.08-1.03c-0.28-0.45-0.41-0.98-0.41-1.61
		c0-0.62,0.14-1.16,0.41-1.62c0.27-0.45,0.62-0.8,1.06-1.05c0.44-0.25,0.91-0.37,1.43-0.37c0.16,0,0.31,0.01,0.45,0.03
		c0.14,0.02,0.28,0.06,0.41,0.11h2.84v1.2c-0.4,0-0.8-0.07-1.2-0.22c-0.4-0.15-0.73-0.3-1.01-0.46l-0.06-0.06
		c0.33,0.18,0.59,0.39,0.8,0.63c0.21,0.24,0.37,0.52,0.48,0.82c0.11,0.3,0.16,0.63,0.16,0.99c0,0.63-0.13,1.16-0.4,1.61
		c-0.27,0.45-0.62,0.79-1.06,1.03C121.64,31.54,121.16,31.66,120.65,31.66z M122.7,35.57v-0.31c0-0.49-0.13-0.85-0.38-1.08
		s-0.64-0.34-1.15-0.34h-1.4c-0.31,0-0.58-0.03-0.8-0.08c-0.23-0.05-0.42-0.13-0.57-0.23c-0.15-0.1-0.26-0.23-0.34-0.38
		c-0.07-0.15-0.11-0.32-0.11-0.5c0-0.35,0.11-0.62,0.32-0.8c0.21-0.18,0.48-0.3,0.8-0.34c0.32-0.05,0.62-0.05,0.91,0l0.67,0.15
		c-0.5,0.03-0.89,0.08-1.17,0.15c-0.28,0.07-0.41,0.23-0.41,0.48c0,0.14,0.05,0.25,0.16,0.34c0.11,0.09,0.27,0.13,0.48,0.13h1.46
		c0.48,0,0.93,0.07,1.33,0.2c0.4,0.14,0.72,0.36,0.97,0.69c0.24,0.32,0.36,0.76,0.36,1.32v0.59H122.7z M120.65,30.61
		c0.31,0,0.59-0.07,0.86-0.22c0.27-0.15,0.48-0.37,0.65-0.66c0.17-0.29,0.25-0.64,0.25-1.06s-0.08-0.78-0.24-1.07
		c-0.16-0.29-0.38-0.52-0.65-0.67c-0.27-0.15-0.56-0.23-0.87-0.23c-0.31,0-0.6,0.08-0.87,0.23c-0.27,0.15-0.49,0.38-0.66,0.66
		c-0.17,0.29-0.25,0.65-0.25,1.08c0,0.42,0.08,0.77,0.25,1.06c0.17,0.29,0.39,0.51,0.66,0.66
		C120.05,30.54,120.34,30.61,120.65,30.61z"/>
	<path class="st1" d="M128.61,25.77h1.12v7h-1.12V25.77z M132.14,25.63c0.37,0,0.71,0.06,1.01,0.17c0.3,0.11,0.55,0.28,0.76,0.49
		c0.21,0.21,0.36,0.47,0.48,0.78c0.11,0.3,0.17,0.65,0.17,1.03v4.67h-1.12v-4.39c0-0.54-0.13-0.95-0.38-1.22
		c-0.25-0.27-0.63-0.41-1.13-0.41c-0.38,0-0.74,0.1-1.06,0.29c-0.33,0.2-0.59,0.46-0.8,0.8c-0.21,0.34-0.34,0.73-0.38,1.18
		l-0.01-0.81c0.05-0.39,0.14-0.75,0.29-1.06c0.14-0.32,0.33-0.59,0.55-0.82c0.22-0.23,0.47-0.4,0.76-0.52
		C131.52,25.69,131.82,25.63,132.14,25.63z M136.84,25.63c0.37,0,0.71,0.06,1.01,0.17c0.3,0.11,0.55,0.28,0.76,0.49
		c0.2,0.21,0.36,0.47,0.48,0.78c0.11,0.3,0.17,0.65,0.17,1.03v4.67h-1.12v-4.39c0-0.54-0.13-0.95-0.38-1.22
		c-0.25-0.27-0.63-0.41-1.13-0.41c-0.38,0-0.74,0.1-1.06,0.29c-0.33,0.2-0.59,0.46-0.8,0.8c-0.21,0.34-0.34,0.73-0.38,1.18
		l-0.01-0.81c0.05-0.39,0.14-0.75,0.29-1.06c0.14-0.32,0.33-0.59,0.55-0.82c0.22-0.23,0.47-0.4,0.76-0.52
		C136.22,25.69,136.52,25.63,136.84,25.63z"/>
	<path class="st1" d="M146.02,30.52h1.05c-0.07,0.46-0.24,0.87-0.5,1.22c-0.26,0.36-0.59,0.64-1.01,0.85
		c-0.42,0.21-0.89,0.31-1.43,0.31c-0.65,0-1.24-0.16-1.76-0.47c-0.52-0.31-0.94-0.74-1.24-1.29c-0.3-0.55-0.45-1.17-0.45-1.87
		c0-0.7,0.15-1.32,0.44-1.88c0.29-0.55,0.7-0.98,1.21-1.3c0.51-0.32,1.09-0.48,1.74-0.48c0.68,0,1.26,0.15,1.73,0.45
		c0.47,0.3,0.82,0.75,1.05,1.33c0.23,0.58,0.32,1.3,0.27,2.15h-5.32c0.05,0.46,0.17,0.86,0.38,1.2c0.2,0.35,0.48,0.61,0.81,0.8
		c0.34,0.19,0.72,0.29,1.15,0.29c0.48,0,0.88-0.12,1.21-0.37C145.67,31.24,145.9,30.92,146.02,30.52z M144.1,26.68
		c-0.58,0-1.06,0.17-1.46,0.5c-0.39,0.34-0.65,0.79-0.78,1.37h4.1c-0.04-0.62-0.24-1.08-0.59-1.4
		C145.01,26.84,144.59,26.68,144.1,26.68z"/>
	<path class="st1" d="M151.19,32.91c-0.56,0-1.07-0.16-1.53-0.47c-0.46-0.31-0.83-0.74-1.1-1.29c-0.27-0.55-0.41-1.17-0.41-1.87
		c0-0.7,0.13-1.32,0.39-1.88c0.26-0.55,0.62-0.98,1.08-1.3c0.46-0.32,0.98-0.48,1.57-0.48c0.52,0,0.95,0.1,1.28,0.29
		c0.33,0.19,0.59,0.45,0.76,0.79c0.18,0.34,0.3,0.72,0.37,1.16c0.07,0.44,0.1,0.91,0.1,1.41c0,0.35-0.04,0.74-0.11,1.15
		c-0.07,0.42-0.2,0.81-0.38,1.19c-0.18,0.38-0.44,0.69-0.76,0.92C152.13,32.79,151.71,32.91,151.19,32.91z M151.47,31.85
		c0.48,0,0.87-0.12,1.18-0.35c0.31-0.23,0.54-0.54,0.69-0.93c0.15-0.39,0.22-0.81,0.22-1.28c0-0.51-0.08-0.96-0.23-1.35
		c-0.15-0.39-0.39-0.69-0.7-0.91c-0.31-0.22-0.7-0.33-1.17-0.33c-0.7,0-1.24,0.24-1.62,0.73c-0.38,0.49-0.57,1.11-0.57,1.85
		c0,0.49,0.1,0.94,0.29,1.32c0.19,0.39,0.45,0.69,0.78,0.91C150.68,31.74,151.05,31.85,151.47,31.85z M153.57,22.97h1.12v9.8h-1.02
		c-0.02-0.21-0.04-0.45-0.06-0.73c-0.02-0.28-0.03-0.5-0.03-0.67V22.97z"/>
	<path class="st1" d="M156.45,35.57v-1.36h1.46v1.36H156.45z M157.73,32.77h-1.12v-7h1.12V32.77z"/>
	<path class="st1" d="M162.5,32.91c-0.55,0-1.06-0.16-1.52-0.47c-0.46-0.31-0.83-0.74-1.11-1.29c-0.28-0.55-0.41-1.17-0.41-1.87
		c0-0.7,0.14-1.32,0.42-1.88c0.28-0.55,0.66-0.98,1.14-1.3c0.48-0.32,1.02-0.48,1.62-0.48c0.65,0,1.15,0.17,1.49,0.5
		c0.34,0.33,0.57,0.77,0.7,1.32c0.13,0.55,0.19,1.16,0.19,1.83c0,0.35-0.04,0.74-0.11,1.15c-0.07,0.42-0.2,0.81-0.38,1.19
		c-0.18,0.38-0.44,0.69-0.76,0.92C163.43,32.79,163.01,32.91,162.5,32.91z M162.78,31.85c0.48,0,0.87-0.12,1.18-0.35
		c0.31-0.23,0.54-0.54,0.69-0.93c0.15-0.39,0.22-0.81,0.22-1.28c0-0.51-0.08-0.96-0.23-1.35c-0.15-0.39-0.39-0.69-0.7-0.91
		c-0.31-0.22-0.7-0.33-1.17-0.33c-0.7,0-1.24,0.24-1.62,0.73c-0.38,0.49-0.57,1.11-0.57,1.85c0,0.49,0.1,0.94,0.29,1.32
		c0.19,0.39,0.45,0.69,0.78,0.91C161.99,31.74,162.36,31.85,162.78,31.85z M164.88,25.77H166v7h-1.02
		c-0.03-0.34-0.05-0.62-0.07-0.84c-0.02-0.22-0.03-0.41-0.03-0.56V25.77z"/>
</g>
</svg>
